<svg xmlns="http://www.w3.org/2000/svg" viewBox="0 0 120 220" fill="none" stroke="rgba(255,255,255,0.4)" stroke-width="1.5" stroke-linecap="round" stroke-linejoin="round">
  <!-- Traditional cap -->
  <ellipse cx="60" cy="28" rx="32" ry="12" />
  <path d="M32 28 L88 28 L85 45 L35 45 Z" />
  <!-- Face outline -->
  <path d="M48 52 Q60 48 72 52" />
  <!-- Body / kurta -->
  <path d="M40 58 L42 180 L50 175 L52 95 L68 95 L70 175 L78 180 L80 58" />
  <path d="M52 95 L68 95" />
  <!-- Arms and sticks (mirrored) -->
  <path d="M80 75 L105 90 L110 120 L102 118" />
  <path d="M40 75 L15 90 L10 120 L18 118" />
  <!-- Dhol -->
  <ellipse cx="60" cy="165" rx="45" ry="22" />
  <ellipse cx="60" cy="165" rx="38" ry="18" />
  <path d="M18 148 L22 182 M102 148 L98 182" />
</svg>
